<svg xmlns="http://www.w3.org/2000/svg" viewBox="0 0 250 200"><defs><style>.a{fill:#ededed;}.b,.c,.d,.e,.g{fill:none;stroke-miterlimit:10;}.b{stroke:#fff;stroke-width:6px;}.b,.c,.d,.e,.f{opacity:0.7;}.c,.d,.e,.g{stroke:#f2f2f2;}.c{stroke-width:11px;}.d,.g{stroke-width:5px;}.e{stroke-width:7px;}</style></defs><title>200</title><path class="a" d="M168.35,106.7c0,10.19-1.24,18.21-3.71,24.39s-5.86,10.8-10.18,13.58A24.64,24.64,0,0,1,140,149.3a25.69,25.69,0,0,1-14.2-4.32,31.15,31.15,0,0,1-9.88-13.59c-2.16-5.86-3.39-14.19-3.39-25s1.23-19.14,3.39-25a27.43,27.43,0,0,1,9.88-13.27A23.65,23.65,0,0,1,140,63.49a23,23,0,0,1,14.2,4.63c4.32,3.08,7.72,7.71,10.18,13.58C167.11,88.18,168.35,96.51,168.35,106.7Z"/><path class="a" d="M112,124.31v24.53H57.21L84.42,97.78,85.35,96a8.31,8.31,0,0,0,1.12-4q0-5-5.9-5a5.84,5.84,0,0,0-5.72,5.72,6.38,6.38,0,0,0,2.24,4.72L66.22,116.79A29.51,29.51,0,0,1,55.72,106a29.93,29.93,0,0,1,5-35.37,28.28,28.28,0,0,1,20.87-8.73,29.42,29.42,0,0,1,29.51,29.63,28.14,28.14,0,0,1-3.17,13.17L97.84,124.31Z"/><circle class="b" cx="84.54" cy="28.49" r="11.49"/><line class="c" x1="151.3" y1="24.96" x2="151.3" y2="32.03"/><line class="d" x1="19.47" y1="130.62" x2="13.53" y2="132.39"/><line class="e" x1="229.28" y1="146.41" x2="243.43" y2="146.41"/><line class="e" x1="236.35" y1="138.89" x2="236.35" y2="153.93"/><g class="f"><line class="g" x1="90.73" y1="176.6" x2="97.81" y2="176.6"/><line class="g" x1="91.17" y1="185" x2="91.17" y2="174.39"/></g><g class="f"><line class="g" x1="177.38" y1="174.83" x2="170.31" y2="174.83"/><line class="g" x1="176.94" y1="166.43" x2="176.94" y2="177.04"/></g><g class="f"><line class="g" x1="226.02" y1="41.32" x2="233.09" y2="41.32"/><line class="g" x1="226.46" y1="32.92" x2="226.46" y2="43.53"/></g><path class="a" d="M227.35,106.7c0,10.19-1.24,18.21-3.71,24.39s-5.86,10.8-10.18,13.58A24.64,24.64,0,0,1,199,149.3a25.69,25.69,0,0,1-14.2-4.32,31.15,31.15,0,0,1-9.88-13.59c-2.16-5.86-3.39-14.19-3.39-25s1.23-19.14,3.39-25a27.43,27.43,0,0,1,9.88-13.27A23.65,23.65,0,0,1,199,63.49a23,23,0,0,1,14.2,4.63c4.32,3.08,7.72,7.71,10.18,13.58C226.11,88.18,227.35,96.51,227.35,106.7Z"/><g class="f"><line class="g" x1="241.38" y1="93.83" x2="234.31" y2="93.83"/><line class="g" x1="240.94" y1="85.43" x2="240.94" y2="96.04"/></g><line class="c" x1="28.3" y1="157.96" x2="28.3" y2="165.03"/><line class="e" x1="29.28" y1="69.41" x2="43.43" y2="69.41"/><line class="e" x1="36.35" y1="61.89" x2="36.35" y2="76.93"/></svg>