<svg xmlns="http://www.w3.org/2000/svg" viewBox="0 0 250 200"><defs><style>.a{fill:#ededed;}.b,.c,.d,.e,.f,.h{fill:none;stroke-miterlimit:10;}.b,.c{stroke:#fff;}.b{stroke-width:6px;}.b,.c,.d,.e,.f,.g{opacity:0.7;}.c{stroke-width:4px;}.d,.e,.f,.h{stroke:#f2f2f2;}.d{stroke-width:11px;}.e,.h{stroke-width:5px;}.f{stroke-width:7px;}</style></defs><title>302</title><path class="a" d="M154.91,108c0,9.91-1.2,17.72-3.6,23.72S145.6,142.27,141.4,145a23.87,23.87,0,0,1-14.11,4.51,24.91,24.91,0,0,1-13.82-4.21,30.3,30.3,0,0,1-9.61-13.21c-2.1-5.7-3.3-13.81-3.3-24.32s1.2-18.62,3.3-24.32a26.85,26.85,0,0,1,9.61-12.92A23.07,23.07,0,0,1,127.29,66a22.41,22.41,0,0,1,13.81,4.5c4.2,3,7.51,7.51,9.91,13.22C153.71,90,154.91,98.13,154.91,108Z"/><path class="a" d="M53,68.09H94L81.32,97.81a30.8,30.8,0,0,1,9.88,10,25.84,25.84,0,0,1,3.09,12.94,24.77,24.77,0,0,1-8.21,18.82,28.47,28.47,0,0,1-20.21,7.67,36.53,36.53,0,0,1-13.14-2.49V123c3.28,2,6.13,3,8.55,3a8.79,8.79,0,0,0,6.65-2.83,9.79,9.79,0,0,0,2.69-7,9,9,0,0,0-4-7.67q-4-2.85-10.76-2.86l5.72-15.23H53Z"/><path class="a" d="M216.77,123.32v24.45H162.19l27.1-50.87.93-1.74a8.37,8.37,0,0,0,1.11-4q0-5-5.88-5a5.81,5.81,0,0,0-5.69,5.69A6.35,6.35,0,0,0,182,96.53l-10.83,19.3a29.42,29.42,0,0,1-10.46-10.7,29.82,29.82,0,0,1,5-35.25,29.37,29.37,0,0,1,41.62-.09,28.55,28.55,0,0,1,8.57,20.92,27.93,27.93,0,0,1-3.16,13.12l-10,19.49Z"/><circle class="b" cx="151.66" cy="29.05" r="10.74"/><circle class="b" cx="26.05" cy="150.53" r="6.61"/><line class="c" x1="26.05" y1="135.65" x2="26.05" y2="145.57"/><line class="c" x1="26.05" y1="154.66" x2="26.05" y2="164.58"/><line class="c" x1="12" y1="150.53" x2="21.92" y2="150.53"/><line class="c" x1="30.18" y1="150.53" x2="40.1" y2="150.53"/><line class="d" x1="95.05" y1="179.45" x2="95.05" y2="186.06"/><line class="e" x1="115.71" y1="15" x2="115.71" y2="20.78"/><line class="f" x1="188.02" y1="28.22" x2="201.24" y2="28.22"/><line class="f" x1="194.63" y1="34.83" x2="194.63" y2="21.61"/><g class="g"><line class="h" x1="36.79" y1="25.33" x2="43.4" y2="25.33"/><line class="h" x1="37.2" y1="33.18" x2="37.2" y2="23.26"/></g><g class="g"><line class="h" x1="194.63" y1="190.61" x2="188.02" y2="190.61"/><line class="h" x1="194.22" y1="182.76" x2="194.22" y2="192.67"/></g><g class="g"><line class="h" x1="243.39" y1="114.58" x2="250" y2="114.58"/><line class="h" x1="243.8" y1="106.73" x2="243.8" y2="116.65"/></g></svg>