<svg xmlns="http://www.w3.org/2000/svg" viewBox="0 0 250 200"><defs><style>.a{fill:#f4f4f4;}.b,.c,.d,.e,.f,.h{fill:none;stroke-miterlimit:10;}.b,.c{stroke:#fff;}.b{stroke-width:6px;}.b,.c,.d,.e,.f,.g{opacity:0.7;}.c{stroke-width:4px;}.d,.e,.f,.h{stroke:#f2f2f2;}.d{stroke-width:11px;}.e,.h{stroke-width:5px;}.f{stroke-width:7px;}</style></defs><title>404</title><polygon class="a" points="95.42 63.14 95.42 140.57 87.7 140.57 87.7 123.14 51.7 123.14 93.7 63.14 95.42 63.14"/><path class="a" d="M162,102.85c0,9.43-1.14,16.86-3.43,22.58s-5.42,10-9.42,12.57a22.76,22.76,0,0,1-13.43,4.28,23.67,23.67,0,0,1-13.15-4,28.78,28.78,0,0,1-9.14-12.57c-2-5.43-3.14-13.14-3.14-23.14s1.14-17.72,3.14-23.14a25.46,25.46,0,0,1,9.14-12.29,21.92,21.92,0,0,1,13.15-4.29,21.3,21.3,0,0,1,13.14,4.29c4,2.86,7.14,7.14,9.43,12.57C160.85,85.71,162,93.43,162,102.85Z"/><polygon class="a" points="211.71 63.14 211.71 140.57 204.28 140.57 204.28 123.14 168.28 123.14 210.28 63.14 211.71 63.14"/><circle class="b" cx="15.28" cy="152.19" r="10.73"/><circle class="b" cx="26.02" cy="25.86" r="6.61"/><line class="c" x1="26.02" y1="11" x2="26.02" y2="20.91"/><line class="c" x1="26.02" y1="29.99" x2="26.02" y2="39.9"/><line class="c" x1="11.98" y1="25.86" x2="21.89" y2="25.86"/><line class="c" x1="30.15" y1="25.86" x2="40.06" y2="25.86"/><line class="d" x1="34.28" y1="101" x2="34.28" y2="107.61"/><line class="e" x1="109.83" y1="13.48" x2="109.83" y2="19.26"/><line class="f" x1="182.07" y1="26.69" x2="195.28" y2="26.69"/><line class="f" x1="188.68" y1="33.29" x2="188.68" y2="20.08"/><g class="g"><line class="h" x1="93.72" y1="179.03" x2="100.33" y2="179.03"/><line class="h" x1="94.14" y1="186.87" x2="94.14" y2="176.96"/></g><g class="g"><line class="h" x1="188.68" y1="188.94" x2="182.07" y2="188.94"/><line class="h" x1="188.27" y1="181.09" x2="188.27" y2="191"/></g><g class="g"><line class="h" x1="237.39" y1="112.97" x2="244" y2="112.97"/><line class="h" x1="237.81" y1="105.13" x2="237.81" y2="115.04"/></g></svg>