<svg xmlns="http://www.w3.org/2000/svg" viewBox="0 0 240 200"><defs><style>.a{fill:#3a9afe;}.b{fill:none;stroke-width:10px;}.b,.c{stroke:#fff;stroke-miterlimit:10;}.c{fill:#fff;stroke-width:0.25px;}</style></defs><title>ocr</title><path class="a" d="M204,27.51H177.71A29,29,0,0,0,149.36,4.58H94.52A29,29,0,0,0,66.17,27.51h-29a31,31,0,0,0-31,31V164.62a31,31,0,0,0,31,31H204a31,31,0,0,0,31-31V58.53A31,31,0,0,0,204,27.51Z"/><path class="b" d="M158.1,107.81a43,43,0,1,1-43-43A42.86,42.86,0,0,1,158.1,107.81Z"/><rect class="c" x="149.33" y="135.28" width="13.37" height="26.75" rx="2.04" transform="translate(-59.42 153.86) rotate(-45)"/></svg>